<svg xmlns="http://www.w3.org/2000/svg" fill="#516ba9" width="128" height="60" viewBox="0 0 128 60"><path d="M58.434 48.823A.441.441.0 0158.3 48.497V22.583a.444.444.0 01.134-.326.446.446.0 01.327-.134h3.527a.447.447.0 01.325.134.447.447.0 01.134.326v25.914a.443.443.0 01-.134.326.444.444.0 01-.325.134h-3.527a.444.444.0 01-.327-.134z"></path><path d="m70.969 48.477a6.556 6.556.0 01-2.818-1.955 4.338 4.338.0 01-1-2.78v-.345a.443.443.0 01.134-.326.444.444.0 01.326-.135h3.374a.444.444.0 01.326.135.445.445.0 01.134.326v.077a2.014 2.014.0 001.054 1.667 4.672 4.672.0 002.664.709 4.446 4.446.0 002.492-.633 1.862 1.862.0 00.958-1.591 1.426 1.426.0 00-.786-1.322 12.7 12.7.0 00-2.549-.939l-1.457-.46a21.526 21.526.0 01-3.3-1.227 6.57 6.57.0 01-2.262-1.783 4.435 4.435.0 01-.92-2.894 5.081 5.081.0 012.109-4.275 8.993 8.993.0 015.558-1.591 10.445 10.445.0 014.1.748 6.3 6.3.0 012.722 2.07 5 5 0 01.958 3.009.441.441.0 01-.134.326.441.441.0 01-.325.134h-3.258a.441.441.0 01-.326-.134.443.443.0 01-.134-.326 1.974 1.974.0 00-.978-1.667 4.647 4.647.0 00-2.665-.671 4.741 4.741.0 00-2.435.556 1.724 1.724.0 00-.938 1.553 1.512 1.512.0 00.9 1.4 15.875 15.875.0 003.01 1.055l.843.229a27.368 27.368.0 013.412 1.246 6.67 6.67.0 012.338 1.763 4.387 4.387.0 01.958 2.933 4.988 4.988.0 01-2.146 4.275 9.543 9.543.0 01-5.712 1.552 11.626 11.626.0 01-4.227-.709z"></path><path d="m97.039 32.837a.443.443.0 01-.326.135h-3.911a.169.169.0 00-.191.192v9.239a2.951 2.951.0 00.632 2.108 2.7 2.7.0 002.013.652h1.15a.444.444.0 01.325.134.441.441.0 01.134.326v2.875a.471.471.0 01-.459.5l-1.994.039a8 8 0 01-4.524-1.035q-1.495-1.035-1.533-3.91V33.166A.17.17.0 0088.164 32.974H85.978A.441.441.0 0185.652 32.839.441.441.0 0185.518 32.513V29.83a.441.441.0 01.134-.326.444.444.0 01.326-.135h2.186a.169.169.0 00.191-.192v-4.485a.438.438.0 01.134-.326.44.44.0 01.325-.134h3.336a.443.443.0 01.325.134.442.442.0 01.135.326v4.485a.169.169.0 00.191.192h3.911a.446.446.0 01.326.135.446.446.0 01.134.326v2.683a.446.446.0 01-.133.324z"></path><path d="m101.694 25.917a2.645 2.645.0 01-.767-1.955 2.65 2.65.0 01.767-1.955 2.65 2.65.0 011.955-.767 2.65 2.65.0 011.955.767 2.652 2.652.0 01.767 1.955 2.647 2.647.0 01-.767 1.955 2.646 2.646.0 01-1.955.767 2.645 2.645.0 01-1.955-.767zm-.211 22.906a.441.441.0 01-.134-.326V29.79a.444.444.0 01.134-.326.446.446.0 01.326-.134h3.527a.446.446.0 01.326.134.445.445.0 01.134.326v18.707a.443.443.0 01-.134.326.443.443.0 01-.326.134h-3.527a.443.443.0 01-.326-.134z"></path><path d="m114.019 47.734a8.1 8.1.0 01-3.047-4.255 14.439 14.439.0 01-.652-4.37 14.3 14.3.0 01.614-4.371A7.869 7.869.0 01114 30.56a9.072 9.072.0 015.252-1.5 8.543 8.543.0 015.041 1.5 7.985 7.985.0 013.009 4.14 12.439 12.439.0 01.69 4.37 13.793 13.793.0 01-.651 4.37 8.255 8.255.0 01-3.028 4.275 8.475 8.475.0 01-5.1 1.553 8.754 8.754.0 01-5.194-1.534zm7.629-3.1a4.536 4.536.0 001.476-2.262 11.335 11.335.0 00.383-3.221 10.618 10.618.0 00-.383-3.22 4.169 4.169.0 00-1.457-2.243 4.066 4.066.0 00-2.531-.785 3.942 3.942.0 00-2.453.785 4.376 4.376.0 00-1.5 2.243 11.839 11.839.0 00-.383 3.22 11.84 11.84.0 00.383 3.221 4.222 4.222.0 001.476 2.262 4.075 4.075.0 002.549.8 3.8 3.8.0 002.44-.809z"></path><path d="m15.105 32.057v15.565a.059.059.0 01-.049.059L.069 50.25A.06.06.0 01.005 50.167l14.987-33.47a.06.06.0 01.114.025z"></path><path d="m17.631 23.087v24.6a.06.06.0 00.053.059l22.449 2.507a.06.06.0 00.061-.084L17.745.032a.06.06.0 00-.114.024z"></path><path d="m39.961 52.548-24.833 7.45a.062.062.0 01-.043.0L.079 52.548a.059.059.0 01.026-.113h39.839a.06.06.0 01.017.113z"></path></svg>
